<mxfile host="app.diagrams.net" modified="2021-05-14T16:38:50.509Z" agent="5.0 (X11; Linux x86_64) AppleWebKit/537.36 (KHTML, like Gecko) Chrome/89.0.4389.90 Safari/537.36" etag="qCBuHLdoE0_DT7leIVwN" version="14.6.9" type="github">
  <diagram id="KvnIHNdnnL4ABYRnP6pf" name="Page-1">
    <mxGraphModel dx="1038" dy="564" grid="1" gridSize="10" guides="1" tooltips="1" connect="1" arrows="1" fold="1" page="1" pageScale="1" pageWidth="827" pageHeight="1169" math="0" shadow="0">
      <root>
        <mxCell id="0" />
        <mxCell id="1" parent="0" />
        <mxCell id="K2V0Z2A7S9xefrkJ-jwN-1" value="ul" style="rounded=0;whiteSpace=wrap;html=1;" parent="1" vertex="1">
          <mxGeometry x="140" y="340" width="120" height="30" as="geometry" />
        </mxCell>
        <mxCell id="Fj9Q9jT_X3s66dtP97f3-2" value="" style="edgeStyle=orthogonalEdgeStyle;rounded=0;orthogonalLoop=1;jettySize=auto;html=1;" edge="1" parent="1" target="K2V0Z2A7S9xefrkJ-jwN-1">
          <mxGeometry relative="1" as="geometry">
            <mxPoint x="480" y="380" as="sourcePoint" />
            <Array as="points">
              <mxPoint x="200" y="380" />
            </Array>
          </mxGeometry>
        </mxCell>
        <mxCell id="Fj9Q9jT_X3s66dtP97f3-1" value="App" style="rounded=0;whiteSpace=wrap;html=1;" vertex="1" parent="1">
          <mxGeometry x="140" y="370" width="120" height="30" as="geometry" />
        </mxCell>
        <mxCell id="Fj9Q9jT_X3s66dtP97f3-3" value="li - 0" style="rounded=0;whiteSpace=wrap;html=1;" vertex="1" parent="1">
          <mxGeometry x="140" y="310" width="120" height="30" as="geometry" />
        </mxCell>
        <mxCell id="Fj9Q9jT_X3s66dtP97f3-4" value="li - 3" style="rounded=0;whiteSpace=wrap;html=1;" vertex="1" parent="1">
          <mxGeometry x="140" y="220" width="120" height="30" as="geometry" />
        </mxCell>
        <mxCell id="Fj9Q9jT_X3s66dtP97f3-5" value="li - 2" style="rounded=0;whiteSpace=wrap;html=1;" vertex="1" parent="1">
          <mxGeometry x="140" y="250" width="120" height="30" as="geometry" />
        </mxCell>
        <mxCell id="Fj9Q9jT_X3s66dtP97f3-6" value="li - 1" style="rounded=0;whiteSpace=wrap;html=1;" vertex="1" parent="1">
          <mxGeometry x="140" y="280" width="120" height="30" as="geometry" />
        </mxCell>
      </root>
    </mxGraphModel>
  </diagram>
</mxfile>
